<?xml version="1.0" encoding="UTF-8"?>
<svg width="85px" height="84px" viewBox="0 0 85 84" version="1.1" xmlns="http://www.w3.org/2000/svg" xmlns:xlink="http://www.w3.org/1999/xlink">
    <!-- Generator: Sketch 51.3 (57544) - http://www.bohemiancoding.com/sketch -->
    <title>icon-1</title>
    <desc>Created with Sketch.</desc>
    <defs></defs>
    <g id="Page-1" stroke="none" stroke-width="1" fill="none" fill-rule="evenodd">
        <g id="HisVoice_StyleGuide" transform="translate(-221.000000, -773.000000)" fill="#FFFFFF">
            <g id="Group-139" transform="translate(190.000000, 739.000000)">
                <g id="icon-1" transform="translate(31.000000, 34.000000)">
                    <path d="M12.3818,71.895 L59.9878,71.895 C66.9548,71.895 72.6218,66.21 72.6218,59.223 L72.6218,24.146 C72.6218,17.159 66.9548,11.474 59.9878,11.474 L25.0168,11.474 C18.0498,11.474 12.3818,17.159 12.3818,24.146 L12.3818,71.895 Z M59.9878,83.369 L7.4208,83.369 C3.8488,83.369 0.9428,80.454 0.9428,76.871 L0.9428,24.146 C0.9428,10.832 11.7418,0 25.0168,0 L59.9878,0 C73.2628,0 84.0618,10.832 84.0618,24.146 L84.0618,59.223 C84.0618,72.537 73.2628,83.369 59.9878,83.369 Z" id="Fill-53"></path>
                    <path d="M52.7197,50.1455 L38.6897,42.9175 C37.5057,42.3085 37.4997,40.6135 38.6787,39.9955 L52.7307,32.6235 C53.2717,32.3395 53.6107,31.7775 53.6107,31.1645 L53.6107,25.2985 C53.6107,24.0555 52.2897,23.2615 51.1977,23.8465 L26.8817,36.8635 C26.3477,37.1495 26.0137,37.7075 26.0137,38.3145 L26.0137,44.6125 C26.0137,45.2235 26.3517,45.7835 26.8897,46.0685 L51.2037,58.9255 C52.2967,59.5035 53.6107,58.7085 53.6107,57.4695 L53.6107,51.6095 C53.6107,50.9925 53.2667,50.4275 52.7197,50.1455" id="Fill-54"></path>
                </g>
            </g>
        </g>
    </g>
</svg>