<?xml version="1.0" encoding="UTF-8"?>
<svg width="85px" height="84px" viewBox="0 0 85 84" version="1.1" xmlns="http://www.w3.org/2000/svg" xmlns:xlink="http://www.w3.org/1999/xlink">
    <!-- Generator: Sketch 51.3 (57544) - http://www.bohemiancoding.com/sketch -->
    <title>copy-btn</title>
    <desc>Created with Sketch.</desc>
    <defs></defs>
    <g id="Page-1" stroke="none" stroke-width="1" fill="none" fill-rule="evenodd">
        <g id="Artboard" transform="translate(-11.000000, -14.000000)" fill="#FFFFFF" fill-rule="nonzero">
            <g id="share-btn" transform="translate(11.000000, 14.000000)">
                <path d="M12.3818,71.895 L59.9878,71.895 C66.9548,71.895 72.6218,66.21 72.6218,59.223 L72.6218,24.146 C72.6218,17.159 66.9548,11.474 59.9878,11.474 L25.0168,11.474 C18.0498,11.474 12.3818,17.159 12.3818,24.146 L12.3818,71.895 Z M59.9878,83.369 L7.4208,83.369 C3.8488,83.369 0.9428,80.454 0.9428,76.871 L0.9428,24.146 C0.9428,10.832 11.7418,0 25.0168,0 L59.9878,0 C73.2628,0 84.0618,10.832 84.0618,24.146 L84.0618,59.223 C84.0618,72.537 73.2628,83.369 59.9878,83.369 Z" id="Fill-53"></path>
                <path d="M57.3846154,34.875 L57.3846154,58.125 L36.6153846,58.125 L36.6153846,34.875 L57.3846154,34.875 Z M57.3846154,31 L36.6153846,31 C34.0769231,31 32,32.74375 32,34.875 L32,58.125 C32,60.25625 34.0769231,62 36.6153846,62 L57.3846154,62 C59.9230769,62 62,60.25625 62,58.125 L62,34.875 C62,32.74375 59.9230769,31 57.3846154,31 Z" id="Shape"></path>
                <path d="M27.5,52 L27.5,26.8666667 L50,26.8666667 L50,23 L27.5,23 C25.025,23 23,24.74 23,26.8666667 L23,52 L27.5,52 Z" id="Shape"></path>
            </g>
        </g>
    </g>
</svg>
