<?xml version="1.0" encoding="UTF-8"?>
<svg width="84px" height="84px" viewBox="0 0 84 84" version="1.1" xmlns="http://www.w3.org/2000/svg" xmlns:xlink="http://www.w3.org/1999/xlink">
    <!-- Generator: Sketch 51.3 (57544) - http://www.bohemiancoding.com/sketch -->
    <title>icon-3</title>
    <desc>Created with Sketch.</desc>
    <defs></defs>
    <g id="Page-1" stroke="none" stroke-width="1" fill="none" fill-rule="evenodd">
        <g id="HisVoice_StyleGuide" transform="translate(-443.000000, -773.000000)" fill="#FFFFFF">
            <g id="Group-139" transform="translate(190.000000, 739.000000)">
                <g id="icon-3" transform="translate(253.000000, 34.000000)">
                    <path d="M12.1855,71.895 L59.7915,71.895 C66.7585,71.895 72.4265,66.21 72.4265,59.223 L72.4265,24.146 C72.4265,17.159 66.7585,11.474 59.7915,11.474 L24.8205,11.474 C17.8535,11.474 12.1855,17.159 12.1855,24.146 L12.1855,71.895 Z M59.7915,83.369 L7.2245,83.369 C3.6525,83.369 0.7465,80.454 0.7465,76.871 L0.7465,24.146 C0.7465,10.832 11.5455,0 24.8205,0 L59.7915,0 C73.0665,0 83.8665,10.832 83.8665,24.146 L83.8665,59.223 C83.8665,72.537 73.0665,83.369 59.7915,83.369 Z" id="Fill-55"></path>
                    <path d="M28.7109,47.7236 L22.1779,47.7236 C20.7029,47.7236 19.5079,46.5246 19.5079,45.0456 L19.5079,38.4926 C19.5079,37.0136 20.7029,35.8146 22.1779,35.8146 L28.7109,35.8146 C30.1859,35.8146 31.3809,37.0136 31.3809,38.4926 L31.3809,45.0456 C31.3809,46.5246 30.1859,47.7236 28.7109,47.7236" id="Fill-56"></path>
                    <path d="M45.2461,47.7236 L38.7131,47.7236 C37.2381,47.7236 36.0431,46.5246 36.0431,45.0456 L36.0431,38.4926 C36.0431,37.0136 37.2381,35.8146 38.7131,35.8146 L45.2461,35.8146 C46.7211,35.8146 47.9161,37.0136 47.9161,38.4926 L47.9161,45.0456 C47.9161,46.5246 46.7211,47.7236 45.2461,47.7236" id="Fill-57"></path>
                    <path d="M61.7803,47.7236 L55.2483,47.7236 C53.7733,47.7236 52.5773,46.5246 52.5773,45.0456 L52.5773,38.4926 C52.5773,37.0136 53.7733,35.8146 55.2483,35.8146 L61.7803,35.8146 C63.2563,35.8146 64.4513,37.0136 64.4513,38.4926 L64.4513,45.0456 C64.4513,46.5246 63.2563,47.7236 61.7803,47.7236" id="Fill-58"></path>
                </g>
            </g>
        </g>
    </g>
</svg>