<?xml version="1.0" encoding="UTF-8"?>
<svg width="109px" height="110px" viewBox="0 0 109 110" version="1.1" xmlns="http://www.w3.org/2000/svg" xmlns:xlink="http://www.w3.org/1999/xlink">
    <!-- Generator: Sketch 51.3 (57544) - http://www.bohemiancoding.com/sketch -->
    <title>Fill 170</title>
    <desc>Created with Sketch.</desc>
    <defs></defs>
    <g id="Page-1" stroke="none" stroke-width="1" fill="none" fill-rule="evenodd">
        <g id="HisVoice_StyleGuide" transform="translate(-486.000000, -1840.000000)" fill="#FFFFFF">
            <g id="Group-217" transform="translate(190.000000, 1704.000000)">
                <path d="M379.4619,187.6904 C379.4619,189.6384 377.8819,191.2184 375.9339,191.2184 L360.3249,191.2184 L360.3249,225.9754 C360.3249,227.9234 358.7449,229.5034 356.7969,229.5034 L344.5019,229.5034 C342.5539,229.5034 340.9739,227.9234 340.9739,225.9754 L340.9739,191.2184 L325.3659,191.2184 C323.4169,191.2184 321.8369,189.6384 321.8369,187.6904 L321.8369,175.3954 C321.8369,173.4464 323.4169,171.8674 325.3659,171.8674 L340.9739,171.8674 L340.9739,156.4624 C340.9739,154.5134 342.5539,152.9334 344.5019,152.9334 L356.7969,152.9334 C358.7449,152.9334 360.3249,154.5134 360.3249,156.4624 L360.3249,171.8674 L375.9339,171.8674 C377.8819,171.8674 379.4619,173.4464 379.4619,175.3954 L379.4619,187.6904 Z M372.8949,136.8924 L328.4049,136.8924 C310.6869,136.8924 296.3229,151.2554 296.3229,168.9744 L296.3229,242.0154 C296.3229,243.9644 297.9029,245.5444 299.8529,245.5444 L372.8949,245.5444 C390.6119,245.5444 404.9759,231.1814 404.9759,213.4634 L404.9759,168.9744 C404.9759,151.2554 390.6119,136.8924 372.8949,136.8924 Z" id="Fill-170"></path>
            </g>
        </g>
    </g>
</svg>