<?xml version="1.0" encoding="UTF-8"?>
<svg width="89px" height="84px" viewBox="0 0 89 84" version="1.1" xmlns="http://www.w3.org/2000/svg" xmlns:xlink="http://www.w3.org/1999/xlink">
    <!-- Generator: Sketch 51.3 (57544) - http://www.bohemiancoding.com/sketch -->
    <title>Group</title>
    <desc>Created with Sketch.</desc>
    <defs></defs>
    <g id="Page-1" stroke="none" stroke-width="1" fill="none" fill-rule="evenodd">
        <g id="HisVoice_StyleGuide" transform="translate(-330.000000, -773.000000)" fill="#FFFFFF">
            <g id="Group-139" transform="translate(190.000000, 739.000000)">
                <g id="Group" transform="translate(140.000000, 34.000000)">
                    <path d="M43.6299,40.7988 L37.6299,54.2318 C37.3439,54.8728 36.7089,55.2858 36.0079,55.2858 L33.1739,55.2858 C31.9779,55.2858 31.1229,54.1248 31.4759,52.9778 L34.2419,43.9748 C34.5949,42.8288 33.7389,41.6678 32.5429,41.6678 C31.5619,41.6678 30.7659,40.8688 30.7659,39.8848 L30.7659,29.8318 C30.7659,28.8468 31.5619,28.0488 32.5429,28.0488 L42.0079,28.0488 C42.9889,28.0488 43.7849,28.8468 43.7849,29.8318 L43.7849,40.0698 C43.7849,40.3208 43.7329,40.5698 43.6299,40.7988 M62.2289,40.7988 L56.2289,54.2318 C55.9429,54.8728 55.3069,55.2858 54.6069,55.2858 L51.7719,55.2858 C50.5759,55.2858 49.7209,54.1248 50.0729,52.9778 L52.8399,43.9748 C53.1929,42.8288 52.3379,41.6678 51.1419,41.6678 C50.1599,41.6678 49.3639,40.8688 49.3639,39.8848 L49.3639,29.8318 C49.3639,28.8468 50.1599,28.0488 51.1419,28.0488 L60.6059,28.0488 C61.5879,28.0488 62.3839,28.8468 62.3839,29.8318 L62.3839,40.0698 C62.3839,40.3208 62.3299,40.5698 62.2289,40.7988" id="Fill-50"></path>
                    <path d="M64.2217,83.3687 L8.0427,83.3687 C6.4587,83.3687 5.1757,82.0817 5.1757,80.4937 L5.1757,40.6127 L16.6157,40.6127 L16.6157,71.8947 L64.2217,71.8947 C71.1997,71.8947 76.8557,66.2217 76.8557,59.2227 L76.8557,24.1457 C76.8557,17.1477 71.1997,11.4737 64.2217,11.4737 L31.8577,11.4737 C30.4167,11.4737 29.2497,10.3027 29.2497,8.8577 L29.2497,2.6157 C29.2497,1.1717 30.4167,-0.0003 31.8577,-0.0003 L64.2217,-0.0003 C77.5177,-0.0003 88.2957,10.8107 88.2957,24.1457 L88.2957,59.2227 C88.2957,72.5577 77.5177,83.3687 64.2217,83.3687" id="Fill-51"></path>
                    <path d="M21.0898,41.853 L12.1108,26.253 C11.5698,25.317 10.2228,25.317 9.6838,26.253 L0.7018,41.853 C0.1628,42.79 0.8368,43.96 1.9148,43.96 L19.8758,43.96 C20.9548,43.96 21.6288,42.79 21.0898,41.853" id="Fill-52"></path>
                </g>
            </g>
        </g>
    </g>
</svg>