<?xml version="1.0" encoding="UTF-8"?>
<svg width="85px" height="84px" viewBox="0 0 85 84" version="1.1" xmlns="http://www.w3.org/2000/svg" xmlns:xlink="http://www.w3.org/1999/xlink">
    <!-- Generator: Sketch 51.3 (57544) - http://www.bohemiancoding.com/sketch -->
    <title>share-btn</title>
    <desc>Created with Sketch.</desc>
    <defs></defs>
    <g id="Page-1" stroke="none" stroke-width="1" fill="none" fill-rule="evenodd">
        <g id="Artboard" transform="translate(-11.000000, -14.000000)" fill="#FFFFFF" fill-rule="nonzero">
            <g id="share-btn" transform="translate(11.000000, 14.000000)">
                <path d="M12.3818,71.895 L59.9878,71.895 C66.9548,71.895 72.6218,66.21 72.6218,59.223 L72.6218,24.146 C72.6218,17.159 66.9548,11.474 59.9878,11.474 L25.0168,11.474 C18.0498,11.474 12.3818,17.159 12.3818,24.146 L12.3818,71.895 Z M59.9878,83.369 L7.4208,83.369 C3.8488,83.369 0.9428,80.454 0.9428,76.871 L0.9428,24.146 C0.9428,10.832 11.7418,0 25.0168,0 L59.9878,0 C73.2628,0 84.0618,10.832 84.0618,24.146 L84.0618,59.223 C84.0618,72.537 73.2628,83.369 59.9878,83.369 Z" id="Fill-53"></path>
                <path d="M49.706,51.495118 L35.676,44.267118 C34.492,43.658118 34.486,41.963118 35.665,41.345118 L49.717,33.973118 C50.258,33.689118 50.597,33.127118 50.597,32.514118 L50.597,26.648118 C50.597,25.405118 49.276,24.611118 48.184,25.196118 L23.868,38.213118 C23.334,38.499118 23,39.057118 23,39.664118 L23,45.962118 C23,46.573118 23.338,47.133118 23.876,47.418118 L48.19,60.275118 C49.283,60.853118 50.597,60.058118 50.597,58.819118 L50.597,52.959118 C50.597,52.342118 50.253,51.777118 49.706,51.495118" id="Fill-54"></path>
                <circle id="Oval" cx="50.5" cy="28.5" r="7.5"></circle>
                <circle id="Oval" cx="51.5" cy="55.5" r="7.5"></circle>
            </g>
        </g>
    </g>
</svg>